<svg xmlns="http://www.w3.org/2000/svg" width="54.001" height="36" viewBox="0 0 54.001 36">
    <defs>
        <style>.a{fill:#00adee;}</style>
    </defs>
    <path class="a"
          d="M831.218,1585.542c0-.01,0-.021,0-.031a1.249,1.249,0,0,0-1.243-1.24h-.326l-5.041-9.941a1.236,1.236,0,0,0-1.105-.681l-8.607,0,.328-2.654a3.693,3.693,0,0,0-.906-2.821,3.516,3.516,0,0,0-2.66-1.173H784.946a1.33,1.33,0,0,0-1.306,1.213l-.268,2.187h15.219a1.753,1.753,0,0,1,1.742,1.826,1.865,1.865,0,0,1-1.836,1.825h-5.076l0,.007H778.516a1.319,1.319,0,0,0-1.3,1.291,1.239,1.239,0,0,0,1.232,1.291h19.736a1.883,1.883,0,0,1,1.575,1.93,2,2,0,0,1-1.951,1.955H784.2a1.332,1.332,0,0,0-1.312,1.3,1.252,1.252,0,0,0,1.245,1.3h13.446a1.882,1.882,0,0,1,1.6,1.935,2,2,0,0,1-1.967,1.955H781.792v0h-1.3a1.331,1.331,0,0,0-1.311,1.3,1.252,1.252,0,0,0,1.244,1.3h1.119l-.438,4.668a3.691,3.691,0,0,0,.906,2.821,3.515,3.515,0,0,0,2.66,1.173h.965a5.608,5.608,0,0,0,5.518,4.708,5.981,5.981,0,0,0,5.759-4.708h12.042a4.03,4.03,0,0,0,2.618-1,3.52,3.52,0,0,0,2.494,1h.2a5.608,5.608,0,0,0,5.518,4.708,5.98,5.98,0,0,0,5.759-4.708h.795a4.231,4.231,0,0,0,4.094-3.826l.779-8.8c0-.012,0-.024,0-.036s0-.035,0-.053S831.218,1585.553,831.218,1585.542Zm-39.993,14.85a3.133,3.133,0,0,1-3.112-3.259,3.334,3.334,0,0,1,3.279-3.259,3.133,3.133,0,0,1,3.112,3.259A3.334,3.334,0,0,1,791.225,1600.392Zm28.629,0a3.133,3.133,0,0,1-3.112-3.259,3.334,3.334,0,0,1,3.279-3.259,3.133,3.133,0,0,1,3.112,3.259A3.334,3.334,0,0,1,819.854,1600.392Zm8.034-6.1a1.552,1.552,0,0,1-1.48,1.388h-.86a5.6,5.6,0,0,0-5.46-4.417,5.973,5.973,0,0,0-5.687,4.417h-.263a1.076,1.076,0,0,1-.816-.351,1.135,1.135,0,0,1-.269-.87l1.612-18.209h3.7l-.587,6.628a3.691,3.691,0,0,0,.905,2.821,3.519,3.519,0,0,0,2.66,1.174h7.2Z"
          transform="translate(-777.217 -1566.999)"/>
</svg>